<svg width="78" height="13" viewBox="0 0 78 13" fill="none" xmlns="http://www.w3.org/2000/svg">
<g id="Group 8">
<path id="Vector" d="M12.4497 4.4813C12.4105 4.36577 12.3383 4.26425 12.242 4.18928C12.1457 4.11431 12.0296 4.06917 11.908 4.05944L8.34974 3.77674L6.80999 0.368795C6.76096 0.259032 6.6812 0.165804 6.58034 0.100363C6.47948 0.0349227 6.36184 6.6074e-05 6.2416 9.38441e-08C6.12137 -6.58863e-05 6.00369 0.0346616 5.90276 0.0999915C5.80183 0.165321 5.72197 0.258461 5.67281 0.368171L4.13306 3.77674L0.574848 4.05944C0.455298 4.06891 0.341007 4.11262 0.245649 4.18533C0.150291 4.25804 0.0779045 4.35669 0.0371484 4.46946C-0.00360776 4.58223 -0.0110073 4.70436 0.0158351 4.82122C0.0426776 4.93809 0.102625 5.04475 0.188506 5.12844L2.818 7.69142L1.88804 11.7178C1.8598 11.8397 1.86885 11.9672 1.91401 12.0839C1.95918 12.2006 2.03837 12.301 2.14131 12.3721C2.24426 12.4432 2.3662 12.4817 2.49132 12.4827C2.61644 12.4836 2.73895 12.447 2.84297 12.3774L6.2414 10.1121L9.63984 12.3774C9.74615 12.448 9.87153 12.4843 9.99911 12.4815C10.1267 12.4787 10.2504 12.437 10.3535 12.3618C10.4566 12.2866 10.5342 12.1817 10.5759 12.0611C10.6176 11.9405 10.6213 11.81 10.5867 11.6872L9.4451 7.6933L12.2762 5.14591C12.4616 4.97867 12.5296 4.71781 12.4497 4.4813Z" fill="#FFB76B"/>
<path id="Vector_2" d="M28.773 4.4813C28.7337 4.36577 28.6615 4.26425 28.5652 4.18928C28.469 4.11431 28.3528 4.06917 28.2312 4.05944L24.673 3.77674L23.1332 0.368795C23.0842 0.259032 23.0044 0.165804 22.9036 0.100363C22.8027 0.0349227 22.6851 6.6074e-05 22.5648 9.38441e-08C22.4446 -6.58863e-05 22.3269 0.0346616 22.226 0.0999915C22.1251 0.165321 22.0452 0.258461 21.9961 0.368171L20.4563 3.77674L16.8981 4.05944C16.7785 4.06891 16.6642 4.11262 16.5689 4.18533C16.4735 4.25804 16.4011 4.35669 16.3604 4.46946C16.3196 4.58223 16.3122 4.70436 16.3391 4.82122C16.3659 4.93809 16.4259 5.04475 16.5117 5.12844L19.1412 7.69142L18.2113 11.7178C18.183 11.8397 18.1921 11.9672 18.2373 12.0839C18.2824 12.2006 18.3616 12.301 18.4646 12.3721C18.5675 12.4432 18.6894 12.4817 18.8146 12.4827C18.9397 12.4836 19.0622 12.447 19.1662 12.3774L22.5646 10.1121L25.9631 12.3774C26.0694 12.448 26.1948 12.4843 26.3224 12.4815C26.4499 12.4787 26.5736 12.437 26.6767 12.3618C26.7798 12.2866 26.8575 12.1817 26.8991 12.0611C26.9408 11.9405 26.9446 11.81 26.9099 11.6872L25.7683 7.6933L28.5994 5.14591C28.7848 4.97867 28.8528 4.71781 28.773 4.4813Z" fill="#FFB76B"/>
<path id="Vector_3" d="M45.0972 4.4813C45.0579 4.36577 44.9857 4.26425 44.8895 4.18928C44.7932 4.11431 44.6771 4.06917 44.5554 4.05944L40.9972 3.77674L39.4575 0.368795C39.4084 0.259032 39.3287 0.165804 39.2278 0.100363C39.1269 0.0349227 39.0093 6.6074e-05 38.8891 9.38441e-08C38.7688 -6.58863e-05 38.6512 0.0346616 38.5502 0.0999915C38.4493 0.165321 38.3694 0.258461 38.3203 0.368171L36.7805 3.77674L33.2223 4.05944C33.1028 4.06891 32.9885 4.11262 32.8931 4.18533C32.7978 4.25804 32.7254 4.35669 32.6846 4.46946C32.6439 4.58223 32.6365 4.70436 32.6633 4.82122C32.6901 4.93809 32.7501 5.04475 32.836 5.12844L35.4655 7.69142L34.5355 11.7178C34.5073 11.8397 34.5163 11.9672 34.5615 12.0839C34.6066 12.2006 34.6858 12.301 34.7888 12.3721C34.8917 12.4432 35.0137 12.4817 35.1388 12.4827C35.2639 12.4836 35.3864 12.447 35.4904 12.3774L38.8889 10.1121L42.2873 12.3774C42.3936 12.448 42.519 12.4843 42.6466 12.4815C42.7742 12.4787 42.8978 12.437 43.0009 12.3618C43.104 12.2866 43.1817 12.1817 43.2234 12.0611C43.265 11.9405 43.2688 11.81 43.2341 11.6872L42.0926 7.6933L44.9237 5.14591C45.109 4.97867 45.1771 4.71781 45.0972 4.4813Z" fill="#FFB76B"/>
<path id="Vector_4" d="M61.4204 4.4813C61.3812 4.36577 61.309 4.26425 61.2127 4.18928C61.1164 4.11431 61.0003 4.06917 60.8787 4.05944L57.3204 3.77674L55.7807 0.368795C55.7317 0.259032 55.6519 0.165804 55.551 0.100363C55.4502 0.0349227 55.3325 6.6074e-05 55.2123 9.38441e-08C55.0921 -6.58863e-05 54.9744 0.0346616 54.8735 0.0999915C54.7725 0.165321 54.6927 0.258461 54.6435 0.368171L53.1038 3.77674L49.5456 4.05944C49.426 4.06891 49.3117 4.11262 49.2164 4.18533C49.121 4.25804 49.0486 4.35669 49.0079 4.46946C48.9671 4.58223 48.9597 4.70436 48.9865 4.82122C49.0134 4.93809 49.0733 5.04475 49.1592 5.12844L51.7887 7.69142L50.8587 11.7178C50.8305 11.8397 50.8396 11.9672 50.8847 12.0839C50.9299 12.2006 51.0091 12.301 51.112 12.3721C51.215 12.4432 51.3369 12.4817 51.462 12.4827C51.5871 12.4836 51.7097 12.447 51.8137 12.3774L55.2121 10.1121L58.6105 12.3774C58.7169 12.448 58.8422 12.4843 58.9698 12.4815C59.0974 12.4787 59.2211 12.437 59.3242 12.3618C59.4273 12.2866 59.5049 12.1817 59.5466 12.0611C59.5883 11.9405 59.592 11.81 59.5574 11.6872L58.4158 7.6933L61.2469 5.14591C61.4323 4.97867 61.5003 4.71781 61.4204 4.4813Z" fill="#FFB76B"/>
<path id="Vector_5" d="M77.7437 4.4813C77.7044 4.36577 77.6322 4.26425 77.5359 4.18928C77.4397 4.11431 77.3235 4.06917 77.2019 4.05944L73.6437 3.77674L72.1039 0.368795C72.0549 0.259032 71.9751 0.165804 71.8743 0.100363C71.7734 0.0349227 71.6558 6.6074e-05 71.5355 9.38441e-08C71.4153 -6.58863e-05 71.2976 0.0346616 71.1967 0.0999915C71.0958 0.165321 71.0159 0.258461 70.9668 0.368171L69.427 3.77674L65.8688 4.05944C65.7492 4.06891 65.635 4.11262 65.5396 4.18533C65.4442 4.25804 65.3718 4.35669 65.3311 4.46946C65.2903 4.58223 65.2829 4.70436 65.3098 4.82122C65.3366 4.93809 65.3966 5.04475 65.4825 5.12844L68.1119 7.69142L67.182 11.7178C67.1537 11.8397 67.1628 11.9672 67.208 12.0839C67.2531 12.2006 67.3323 12.301 67.4353 12.3721C67.5382 12.4432 67.6601 12.4817 67.7853 12.4827C67.9104 12.4836 68.0329 12.447 68.1369 12.3774L71.5353 10.1121L74.9338 12.3774C75.0401 12.448 75.1655 12.4843 75.2931 12.4815C75.4206 12.4787 75.5443 12.437 75.6474 12.3618C75.7505 12.2866 75.8282 12.1817 75.8698 12.0611C75.9115 11.9405 75.9153 11.81 75.8806 11.6872L74.739 7.6933L77.5701 5.14591C77.7555 4.97867 77.8235 4.71781 77.7437 4.4813Z" fill="#FFB76B"/>
</g>
</svg>
